{
  "accessors": [
    {
      "bufferView": 0,
      "componentType": 5123,
      "count": 82410,
      "max": [
        82409.0
      ],
      "min": [
        0.0
      ],
      "name": "buffer-0-accessor-indices-buffer-0-mesh-0",
      "type": "SCALAR"
    },
    {
      "bufferView": 1,
      "componentType": 5126,
      "count": 13305,
      "max": [
        0.0011637929128482938,
        0.00016758119454607368,
        -1.1848111171275377e-05
      ],
      "min": [
        -0.0003007148625329137,
        -9.495639824308455e-05,
        -0.0009971188846975565
      ],
      "name": "buffer-0-accessor-position-buffer-0-mesh-0",
      "type": "VEC3"
    },
    {
      "bufferView": 1,
      "byteOffset": 159660,
      "componentType": 5126,
      "count": 13305,
      "name": "buffer-0-accessor-normal-buffer-0-mesh-0",
      "type": "VEC3"
    },
    {
      "bufferView": 1,
      "byteOffset": 319320,
      "componentType": 5126,
      "count": 13305,
      "name": "buffer-0-accessor-color-buffer-0-mesh-0",
      "type": "VEC3"
    }
  ],
  "asset": {
    "generator": "Open3D",
    "version": "2.0"
  },
  "bufferViews": [
    {
      "buffer": 0,
      "byteLength": 164820,
      "name": "buffer-0-bufferview-ushort",
      "target": 34963
    },
    {
      "buffer": 0,
      "byteLength": 478980,
      "byteOffset": 164820,
      "byteStride": 12,
      "name": "buffer-0-bufferview-vec3",
      "target": 34962
    }
  ],
  "buffers": [
    {
      "byteLength": 643800,
      "uri": "data:application/octet-stream;base64,"
    }
  ],
  "meshes": [
    {
      "primitives": [
        {
          "attributes": {
            "COLOR_0": 3,
            "NORMAL": 2,
            "POSITION": 1
          },
          "indices": 0,
          "mode": 4
        }
      ]
    }
  ],
  "nodes": [
    {
      "mesh": 0
    }
  ],
  "scene": 0,
  "scenes": [
    {
      "nodes": [
        0
      ]
    }
  ]
}
